<?xml version="1.0" standalone="no"?><!DOCTYPE svg PUBLIC "-//W3C//DTD SVG 1.1//EN" "http://www.w3.org/Graphics/SVG/1.1/DTD/svg11.dtd"><svg t="1704434275517" class="icon" viewBox="0 0 1024 1024" version="1.1" xmlns="http://www.w3.org/2000/svg" p-id="10171" xmlns:xlink="http://www.w3.org/1999/xlink" width="200" height="200"><path d="M926.464 780.1856h48.7936v48.7424h-48.7936z" fill="#012777" p-id="10172"></path><path d="M926.464 731.4432h48.7936v48.7424h-48.7936zM926.464 682.6496h48.7936v48.7936h-48.7936zM926.464 633.9072h48.7936v48.7424h-48.7936zM926.464 585.1648h48.7936v48.7424h-48.7936zM926.464 536.3712h48.7936v48.7936h-48.7936zM926.464 487.6288h48.7936v48.7424h-48.7936zM926.464 438.8352h48.7936v48.7936h-48.7936zM926.464 390.0928h48.7936v48.7424h-48.7936zM877.7216 828.928h48.7424v48.7936h-48.7424z" fill="#012777" p-id="10173"></path><path d="M877.7216 780.1856h48.7424v48.7424h-48.7424z" fill="#DEE6FC" p-id="10174"></path><path d="M877.7216 731.4432h48.7424v48.7424h-48.7424zM877.7216 682.6496h48.7424v48.7936h-48.7424zM877.7216 633.9072h48.7424v48.7424h-48.7424zM877.7216 585.1648h48.7424v48.7424h-48.7424zM877.7216 536.3712h48.7424v48.7936h-48.7424zM877.7216 487.6288h48.7424v48.7424h-48.7424z" fill="#DEE6FC" p-id="10175"></path><path d="M877.7216 438.8352h48.7424v48.7936h-48.7424z" fill="#012777" p-id="10176"></path><path d="M877.7216 390.0928h48.7424v48.7424h-48.7424z" fill="#DEE6FC" p-id="10177"></path><path d="M877.7216 341.3504h48.7424v48.7424h-48.7424zM828.928 877.7216h48.7936v48.7424h-48.7936z" fill="#012777" p-id="10178"></path><path d="M828.928 828.928h48.7936v48.7936h-48.7936z" fill="#DEE6FC" p-id="10179"></path><path d="M828.928 780.1856h48.7936v48.7424h-48.7936z" fill="#DD75A1" p-id="10180"></path><path d="M828.928 731.4432h48.7936v48.7424h-48.7936z" fill="#DD75A1" p-id="10181"></path><path d="M828.928 682.6496h48.7936v48.7936h-48.7936z" fill="#375AA4" p-id="10182"></path><path d="M828.928 633.9072h48.7936v48.7424h-48.7936zM828.928 585.1648h48.7936v48.7424h-48.7936z" fill="#DD75A1" p-id="10183"></path><path d="M828.928 536.3712h48.7936v48.7936h-48.7936z" fill="#DEE6FC" p-id="10184"></path><path d="M828.928 487.6288h48.7936v48.7424h-48.7936z" fill="#012777" p-id="10185"></path><path d="M828.928 438.8352h48.7936v48.7936h-48.7936zM828.928 390.0928h48.7936v48.7424h-48.7936zM828.928 341.3504h48.7936v48.7424h-48.7936z" fill="#DEE6FC" p-id="10186"></path><path d="M828.928 292.5568h48.7936v48.7936h-48.7936zM780.1856 877.7216h48.7424v48.7424h-48.7424z" fill="#012777" p-id="10187"></path><path d="M780.1856 828.928h48.7424v48.7936h-48.7424z" fill="#DEE6FC" p-id="10188"></path><path d="M780.1856 780.1856h48.7424v48.7424h-48.7424z" fill="#DD75A1" p-id="10189"></path><path d="M780.1856 731.4432h48.7424v48.7424h-48.7424zM780.1856 682.6496h48.7424v48.7936h-48.7424zM780.1856 633.9072h48.7424v48.7424h-48.7424zM780.1856 585.1648h48.7424v48.7424h-48.7424z" fill="#DD75A1" p-id="10190"></path><path d="M780.1856 536.3712h48.7424v48.7936h-48.7424z" fill="#DEE6FC" p-id="10191"></path><path d="M780.1856 487.6288h48.7424v48.7424h-48.7424z" fill="#012777" p-id="10192"></path><path d="M780.1856 438.8352h48.7424v48.7936h-48.7424zM780.1856 390.0928h48.7424v48.7424h-48.7424zM780.1856 341.3504h48.7424v48.7424h-48.7424z" fill="#DEE6FC" p-id="10193"></path><path d="M780.1856 292.5568h48.7424v48.7936h-48.7424zM731.4432 877.7216h48.7424v48.7424h-48.7424z" fill="#012777" p-id="10194"></path><path d="M731.4432 828.928h48.7424v48.7936h-48.7424z" fill="#DEE6FC" p-id="10195"></path><path d="M731.4432 780.1856h48.7424v48.7424h-48.7424z" fill="#DD75A1" p-id="10196"></path><path d="M731.4432 731.4432h48.7424v48.7424h-48.7424z" fill="#375AA4" p-id="10197"></path><path d="M731.4432 682.6496h48.7424v48.7936h-48.7424zM731.4432 633.9072h48.7424v48.7424h-48.7424z" fill="#DD75A1" p-id="10198"></path><path d="M731.4432 585.1648h48.7424v48.7424h-48.7424z" fill="#DEE6FC" p-id="10199"></path><path d="M731.4432 536.3712h48.7424v48.7936h-48.7424z" fill="#012777" p-id="10200"></path><path d="M731.4432 487.6288h48.7424v48.7424h-48.7424zM731.4432 438.8352h48.7424v48.7936h-48.7424z" fill="#DEE6FC" p-id="10201"></path><path d="M731.4432 390.0928h48.7424v48.7424h-48.7424zM731.4432 341.3504h48.7424v48.7424h-48.7424zM731.4432 292.5568h48.7424v48.7936h-48.7424zM682.6496 926.464h48.7936v48.7936h-48.7936z" fill="#012777" p-id="10202"></path><path d="M682.6496 877.7216h48.7936v48.7424h-48.7936z" fill="#DEE6FC" p-id="10203"></path><path d="M682.6496 828.928h48.7936v48.7936h-48.7936zM682.6496 780.1856h48.7936v48.7424h-48.7936z" fill="#DD75A1" p-id="10204"></path><path d="M682.6496 731.4432h48.7936v48.7424h-48.7936zM682.6496 682.6496h48.7936v48.7936h-48.7936zM682.6496 633.9072h48.7936v48.7424h-48.7936z" fill="#DD75A1" p-id="10205"></path><path d="M682.6496 585.1648h48.7936v48.7424h-48.7936z" fill="#DEE6FC" p-id="10206"></path><path d="M682.6496 536.3712h48.7936v48.7936h-48.7936z" fill="#012777" p-id="10207"></path><path d="M682.6496 487.6288h48.7936v48.7424h-48.7936z" fill="#DEE6FC" p-id="10208"></path><path d="M682.6496 438.8352h48.7936v48.7936h-48.7936z" fill="#012777" p-id="10209"></path><path d="M682.6496 390.0928h48.7936v48.7424h-48.7936zM682.6496 341.3504h48.7936v48.7424h-48.7936z" fill="#375AA4" p-id="10210"></path><path d="M682.6496 292.5568h48.7936v48.7936h-48.7936z" fill="#A2D8EA" p-id="10211"></path><path d="M682.6496 243.8144h48.7936v48.7424h-48.7936zM633.9072 926.464h48.7424v48.7936h-48.7424z" fill="#012777" p-id="10212"></path><path d="M633.9072 877.7216h48.7424v48.7424h-48.7424z" fill="#DEE6FC" p-id="10213"></path><path d="M633.9072 828.928h48.7424v48.7936h-48.7424zM633.9072 780.1856h48.7424v48.7424h-48.7424z" fill="#DD75A1" p-id="10214"></path><path d="M633.9072 731.4432h48.7424v48.7424h-48.7424z" fill="#375AA4" p-id="10215"></path><path d="M633.9072 682.6496h48.7424v48.7936h-48.7424z" fill="#DD75A1" p-id="10216"></path><path d="M633.9072 633.9072h48.7424v48.7424h-48.7424z" fill="#DEE6FC" p-id="10217"></path><path d="M633.9072 585.1648h48.7424v48.7424h-48.7424z" fill="#012777" p-id="10218"></path><path d="M633.9072 536.3712h48.7424v48.7936h-48.7424zM633.9072 487.6288h48.7424v48.7424h-48.7424z" fill="#DEE6FC" p-id="10219"></path><path d="M633.9072 438.8352h48.7424v48.7936h-48.7424z" fill="#012777" p-id="10220"></path><path d="M633.9072 390.0928h48.7424v48.7424h-48.7424z" fill="#375AA4" p-id="10221"></path><path d="M633.9072 341.3504h48.7424v48.7424h-48.7424zM633.9072 292.5568h48.7424v48.7936h-48.7424z" fill="#A2D8EA" p-id="10222"></path><path d="M633.9072 243.8144h48.7424v48.7424h-48.7424zM585.1648 926.464h48.7424v48.7936h-48.7424z" fill="#012777" p-id="10223"></path><path d="M585.1648 877.7216h48.7424v48.7424h-48.7424z" fill="#DEE6FC" p-id="10224"></path><path d="M585.1648 828.928h48.7424v48.7936h-48.7424zM585.1648 780.1856h48.7424v48.7424h-48.7424z" fill="#DD75A1" p-id="10225"></path><path d="M585.1648 731.4432h48.7424v48.7424h-48.7424zM585.1648 682.6496h48.7424v48.7936h-48.7424z" fill="#DD75A1" p-id="10226"></path><path d="M585.1648 633.9072h48.7424v48.7424h-48.7424z" fill="#DEE6FC" p-id="10227"></path><path d="M585.1648 585.1648h48.7424v48.7424h-48.7424z" fill="#012777" p-id="10228"></path><path d="M585.1648 536.3712h48.7424v48.7936h-48.7424z" fill="#DEE6FC" p-id="10229"></path><path d="M585.1648 487.6288h48.7424v48.7424h-48.7424z" fill="#012777" p-id="10230"></path><path d="M585.1648 438.8352h48.7424v48.7936h-48.7424zM585.1648 390.0928h48.7424v48.7424h-48.7424z" fill="#375AA4" p-id="10231"></path><path d="M585.1648 341.3504h48.7424v48.7424h-48.7424z" fill="#A2D8EA" p-id="10232"></path><path d="M585.1648 292.5568h48.7424v48.7936h-48.7424zM585.1648 243.8144h48.7424v48.7424h-48.7424z" fill="#012777" p-id="10233"></path><path d="M585.1648 195.072h48.7424v48.7424h-48.7424zM585.1648 146.2784h48.7424v48.7936h-48.7424zM585.1648 97.536h48.7424v48.7424h-48.7424zM536.3712 926.464h48.7936v48.7936h-48.7936z" fill="#012777" p-id="10234"></path><path d="M536.3712 877.7216h48.7936v48.7424h-48.7936z" fill="#DEE6FC" p-id="10235"></path><path d="M536.3712 828.928h48.7936v48.7936h-48.7936zM536.3712 780.1856h48.7936v48.7424h-48.7936z" fill="#DD75A1" p-id="10236"></path><path d="M536.3712 731.4432h48.7936v48.7424h-48.7936z" fill="#375AA4" p-id="10237"></path><path d="M536.3712 682.6496h48.7936v48.7936h-48.7936z" fill="#DD75A1" p-id="10238"></path><path d="M536.3712 633.9072h48.7936v48.7424h-48.7936z" fill="#DEE6FC" p-id="10239"></path><path d="M536.3712 585.1648h48.7936v48.7424h-48.7936z" fill="#012777" p-id="10240"></path><path d="M536.3712 536.3712h48.7936v48.7936h-48.7936z" fill="#DEE6FC" p-id="10241"></path><path d="M536.3712 487.6288h48.7936v48.7424h-48.7936z" fill="#012777" p-id="10242"></path><path d="M536.3712 438.8352h48.7936v48.7936h-48.7936zM536.3712 390.0928h48.7936v48.7424h-48.7936z" fill="#375AA4" p-id="10243"></path><path d="M536.3712 341.3504h48.7936v48.7424h-48.7936zM536.3712 292.5568h48.7936v48.7936h-48.7936zM536.3712 243.8144h48.7936v48.7424h-48.7936z" fill="#A2D8EA" p-id="10244"></path><path d="M536.3712 195.072h48.7936v48.7424h-48.7936zM487.6288 926.464h48.7424v48.7936h-48.7424z" fill="#012777" p-id="10245"></path><path d="M487.6288 877.7216h48.7424v48.7424h-48.7424z" fill="#DEE6FC" p-id="10246"></path><path d="M487.6288 828.928h48.7424v48.7936h-48.7424zM487.6288 780.1856h48.7424v48.7424h-48.7424z" fill="#DD75A1" p-id="10247"></path><path d="M487.6288 731.4432h48.7424v48.7424h-48.7424zM487.6288 682.6496h48.7424v48.7936h-48.7424z" fill="#DD75A1" p-id="10248"></path><path d="M487.6288 633.9072h48.7424v48.7424h-48.7424z" fill="#DEE6FC" p-id="10249"></path><path d="M487.6288 585.1648h48.7424v48.7424h-48.7424z" fill="#012777" p-id="10250"></path><path d="M487.6288 536.3712h48.7424v48.7936h-48.7424z" fill="#DEE6FC" p-id="10251"></path><path d="M487.6288 487.6288h48.7424v48.7424h-48.7424z" fill="#012777" p-id="10252"></path><path d="M487.6288 438.8352h48.7424v48.7936h-48.7424zM487.6288 390.0928h48.7424v48.7424h-48.7424z" fill="#375AA4" p-id="10253"></path><path d="M487.6288 341.3504h48.7424v48.7424h-48.7424z" fill="#A2D8EA" p-id="10254"></path><path d="M487.6288 292.5568h48.7424v48.7936h-48.7424zM487.6288 243.8144h48.7424v48.7424h-48.7424z" fill="#012777" p-id="10255"></path><path d="M487.6288 195.072h48.7424v48.7424h-48.7424zM487.6288 146.2784h48.7424v48.7936h-48.7424zM487.6288 97.536h48.7424v48.7424h-48.7424zM487.6288 48.7424h48.7424v48.7936h-48.7424zM438.8352 926.464h48.7936v48.7936h-48.7936z" fill="#012777" p-id="10256"></path><path d="M438.8352 877.7216h48.7936v48.7424h-48.7936z" fill="#DEE6FC" p-id="10257"></path><path d="M438.8352 828.928h48.7936v48.7936h-48.7936zM438.8352 780.1856h48.7936v48.7424h-48.7936z" fill="#DD75A1" p-id="10258"></path><path d="M438.8352 731.4432h48.7936v48.7424h-48.7936z" fill="#A2D8EA" p-id="10259"></path><path d="M438.8352 682.6496h48.7936v48.7936h-48.7936z" fill="#DD75A1" p-id="10260"></path><path d="M438.8352 633.9072h48.7936v48.7424h-48.7936z" fill="#DEE6FC" p-id="10261"></path><path d="M438.8352 585.1648h48.7936v48.7424h-48.7936z" fill="#012777" p-id="10262"></path><path d="M438.8352 536.3712h48.7936v48.7936h-48.7936z" fill="#DEE6FC" p-id="10263"></path><path d="M438.8352 487.6288h48.7936v48.7424h-48.7936z" fill="#012777" p-id="10264"></path><path d="M438.8352 438.8352h48.7936v48.7936h-48.7936zM438.8352 390.0928h48.7936v48.7424h-48.7936z" fill="#375AA4" p-id="10265"></path><path d="M438.8352 341.3504h48.7936v48.7424h-48.7936zM438.8352 292.5568h48.7936v48.7936h-48.7936zM438.8352 243.8144h48.7936v48.7424h-48.7936z" fill="#A2D8EA" p-id="10266"></path><path d="M438.8352 195.072h48.7936v48.7424h-48.7936zM390.0928 926.464h48.7424v48.7936h-48.7424z" fill="#012777" p-id="10267"></path><path d="M390.0928 877.7216h48.7424v48.7424h-48.7424z" fill="#DEE6FC" p-id="10268"></path><path d="M390.0928 828.928h48.7424v48.7936h-48.7424zM390.0928 780.1856h48.7424v48.7424h-48.7424z" fill="#DD75A1" p-id="10269"></path><path d="M390.0928 731.4432h48.7424v48.7424h-48.7424zM390.0928 682.6496h48.7424v48.7936h-48.7424z" fill="#DD75A1" p-id="10270"></path><path d="M390.0928 633.9072h48.7424v48.7424h-48.7424z" fill="#DEE6FC" p-id="10271"></path><path d="M390.0928 585.1648h48.7424v48.7424h-48.7424z" fill="#012777" p-id="10272"></path><path d="M390.0928 536.3712h48.7424v48.7936h-48.7424z" fill="#DEE6FC" p-id="10273"></path><path d="M390.0928 487.6288h48.7424v48.7424h-48.7424z" fill="#012777" p-id="10274"></path><path d="M390.0928 438.8352h48.7424v48.7936h-48.7424zM390.0928 390.0928h48.7424v48.7424h-48.7424z" fill="#375AA4" p-id="10275"></path><path d="M390.0928 341.3504h48.7424v48.7424h-48.7424z" fill="#A2D8EA" p-id="10276"></path><path d="M390.0928 292.5568h48.7424v48.7936h-48.7424zM390.0928 243.8144h48.7424v48.7424h-48.7424z" fill="#012777" p-id="10277"></path><path d="M390.0928 195.072h48.7424v48.7424h-48.7424zM390.0928 146.2784h48.7424v48.7936h-48.7424zM390.0928 97.536h48.7424v48.7424h-48.7424zM341.3504 926.464h48.7424v48.7936h-48.7424z" fill="#012777" p-id="10278"></path><path d="M341.3504 877.7216h48.7424v48.7424h-48.7424z" fill="#DEE6FC" p-id="10279"></path><path d="M341.3504 828.928h48.7424v48.7936h-48.7424zM341.3504 780.1856h48.7424v48.7424h-48.7424z" fill="#DD75A1" p-id="10280"></path><path d="M341.3504 731.4432h48.7424v48.7424h-48.7424z" fill="#A2D8EA" p-id="10281"></path><path d="M341.3504 682.6496h48.7424v48.7936h-48.7424z" fill="#DD75A1" p-id="10282"></path><path d="M341.3504 633.9072h48.7424v48.7424h-48.7424z" fill="#DEE6FC" p-id="10283"></path><path d="M341.3504 585.1648h48.7424v48.7424h-48.7424z" fill="#012777" p-id="10284"></path><path d="M341.3504 536.3712h48.7424v48.7936h-48.7424zM341.3504 487.6288h48.7424v48.7424h-48.7424z" fill="#DEE6FC" p-id="10285"></path><path d="M341.3504 438.8352h48.7424v48.7936h-48.7424z" fill="#012777" p-id="10286"></path><path d="M341.3504 390.0928h48.7424v48.7424h-48.7424z" fill="#375AA4" p-id="10287"></path><path d="M341.3504 341.3504h48.7424v48.7424h-48.7424zM341.3504 292.5568h48.7424v48.7936h-48.7424z" fill="#A2D8EA" p-id="10288"></path><path d="M341.3504 243.8144h48.7424v48.7424h-48.7424zM292.5568 926.464h48.7936v48.7936h-48.7936z" fill="#012777" p-id="10289"></path><path d="M292.5568 877.7216h48.7936v48.7424h-48.7936z" fill="#DEE6FC" p-id="10290"></path><path d="M292.5568 828.928h48.7936v48.7936h-48.7936zM292.5568 780.1856h48.7936v48.7424h-48.7936z" fill="#DD75A1" p-id="10291"></path><path d="M292.5568 731.4432h48.7936v48.7424h-48.7936zM292.5568 682.6496h48.7936v48.7936h-48.7936zM292.5568 633.9072h48.7936v48.7424h-48.7936z" fill="#DD75A1" p-id="10292"></path><path d="M292.5568 585.1648h48.7936v48.7424h-48.7936z" fill="#DEE6FC" p-id="10293"></path><path d="M292.5568 536.3712h48.7936v48.7936h-48.7936z" fill="#012777" p-id="10294"></path><path d="M292.5568 487.6288h48.7936v48.7424h-48.7936z" fill="#DEE6FC" p-id="10295"></path><path d="M292.5568 438.8352h48.7936v48.7936h-48.7936z" fill="#012777" p-id="10296"></path><path d="M292.5568 390.0928h48.7936v48.7424h-48.7936zM292.5568 341.3504h48.7936v48.7424h-48.7936z" fill="#375AA4" p-id="10297"></path><path d="M292.5568 292.5568h48.7936v48.7936h-48.7936z" fill="#A2D8EA" p-id="10298"></path><path d="M292.5568 243.8144h48.7936v48.7424h-48.7936zM243.8144 877.7216h48.7424v48.7424h-48.7424z" fill="#012777" p-id="10299"></path><path d="M243.8144 828.928h48.7424v48.7936h-48.7424z" fill="#DEE6FC" p-id="10300"></path><path d="M243.8144 780.1856h48.7424v48.7424h-48.7424z" fill="#DD75A1" p-id="10301"></path><path d="M243.8144 731.4432h48.7424v48.7424h-48.7424z" fill="#A2D8EA" p-id="10302"></path><path d="M243.8144 682.6496h48.7424v48.7936h-48.7424zM243.8144 633.9072h48.7424v48.7424h-48.7424z" fill="#DD75A1" p-id="10303"></path><path d="M243.8144 585.1648h48.7424v48.7424h-48.7424z" fill="#DEE6FC" p-id="10304"></path><path d="M243.8144 536.3712h48.7424v48.7936h-48.7424z" fill="#012777" p-id="10305"></path><path d="M243.8144 487.6288h48.7424v48.7424h-48.7424zM243.8144 438.8352h48.7424v48.7936h-48.7424z" fill="#DEE6FC" p-id="10306"></path><path d="M243.8144 390.0928h48.7424v48.7424h-48.7424zM243.8144 341.3504h48.7424v48.7424h-48.7424zM243.8144 292.5568h48.7424v48.7936h-48.7424zM195.072 877.7216h48.7424v48.7424H195.072z" fill="#012777" p-id="10307"></path><path d="M195.072 828.928h48.7424v48.7936H195.072z" fill="#DEE6FC" p-id="10308"></path><path d="M195.072 780.1856h48.7424v48.7424H195.072z" fill="#DD75A1" p-id="10309"></path><path d="M195.072 731.4432h48.7424v48.7424H195.072zM195.072 682.6496h48.7424v48.7936H195.072zM195.072 633.9072h48.7424v48.7424H195.072zM195.072 585.1648h48.7424v48.7424H195.072z" fill="#DD75A1" p-id="10310"></path><path d="M195.072 536.3712h48.7424v48.7936H195.072z" fill="#DEE6FC" p-id="10311"></path><path d="M195.072 487.6288h48.7424v48.7424H195.072z" fill="#012777" p-id="10312"></path><path d="M195.072 438.8352h48.7424v48.7936H195.072zM195.072 390.0928h48.7424v48.7424H195.072zM195.072 341.3504h48.7424v48.7424H195.072z" fill="#DEE6FC" p-id="10313"></path><path d="M195.072 292.5568h48.7424v48.7936H195.072zM146.2784 877.7216h48.7936v48.7424h-48.7936z" fill="#012777" p-id="10314"></path><path d="M146.2784 828.928h48.7936v48.7936h-48.7936z" fill="#DEE6FC" p-id="10315"></path><path d="M146.2784 780.1856h48.7936v48.7424h-48.7936z" fill="#DD75A1" p-id="10316"></path><path d="M146.2784 731.4432h48.7936v48.7424h-48.7936z" fill="#DD75A1" p-id="10317"></path><path d="M146.2784 682.6496h48.7936v48.7936h-48.7936z" fill="#A2D8EA" p-id="10318"></path><path d="M146.2784 633.9072h48.7936v48.7424h-48.7936zM146.2784 585.1648h48.7936v48.7424h-48.7936z" fill="#DD75A1" p-id="10319"></path><path d="M146.2784 536.3712h48.7936v48.7936h-48.7936z" fill="#DEE6FC" p-id="10320"></path><path d="M146.2784 487.6288h48.7936v48.7424h-48.7936z" fill="#012777" p-id="10321"></path><path d="M146.2784 438.8352h48.7936v48.7936h-48.7936zM146.2784 390.0928h48.7936v48.7424h-48.7936zM146.2784 341.3504h48.7936v48.7424h-48.7936z" fill="#DEE6FC" p-id="10322"></path><path d="M146.2784 292.5568h48.7936v48.7936h-48.7936zM97.536 828.928h48.7424v48.7936h-48.7424z" fill="#012777" p-id="10323"></path><path d="M97.536 780.1856h48.7424v48.7424h-48.7424z" fill="#DEE6FC" p-id="10324"></path><path d="M97.536 731.4432h48.7424v48.7424h-48.7424zM97.536 682.6496h48.7424v48.7936h-48.7424zM97.536 633.9072h48.7424v48.7424h-48.7424zM97.536 585.1648h48.7424v48.7424h-48.7424zM97.536 536.3712h48.7424v48.7936h-48.7424zM97.536 487.6288h48.7424v48.7424h-48.7424z" fill="#DEE6FC" p-id="10325"></path><path d="M97.536 438.8352h48.7424v48.7936h-48.7424z" fill="#012777" p-id="10326"></path><path d="M97.536 390.0928h48.7424v48.7424h-48.7424z" fill="#DEE6FC" p-id="10327"></path><path d="M97.536 341.3504h48.7424v48.7424h-48.7424zM48.7424 780.1856h48.7936v48.7424H48.7424z" fill="#012777" p-id="10328"></path><path d="M48.7424 731.4432h48.7936v48.7424H48.7424zM48.7424 682.6496h48.7936v48.7936H48.7424zM48.7424 633.9072h48.7936v48.7424H48.7424zM48.7424 585.1648h48.7936v48.7424H48.7424zM48.7424 536.3712h48.7936v48.7936H48.7424zM48.7424 487.6288h48.7936v48.7424H48.7424zM48.7424 438.8352h48.7936v48.7936H48.7424zM48.7424 390.0928h48.7936v48.7424H48.7424z" fill="#012777" p-id="10329"></path></svg>